<svg width="702" height="115" viewBox="0 0 702 115" fill="none" xmlns="http://www.w3.org/2000/svg">
<path fill-rule="evenodd" clip-rule="evenodd" d="M406.385 80.9735C407.201 91.4571 407.201 96.3718 407.201 101.736H382.943C382.943 100.567 382.964 99.4986 382.985 98.4145C383.051 95.0451 383.119 91.5318 382.573 84.4365C381.852 74.0485 377.378 71.7404 369.152 71.7404H361.865H331V52.8403H370.307C380.697 52.8403 385.893 49.6796 385.893 41.3119C385.893 33.9537 380.697 29.4947 370.307 29.4947H331V11.0005H374.636C398.159 11.0005 409.848 22.1096 409.848 39.8553C409.848 53.1286 401.622 61.7851 390.51 63.2278C399.89 65.1037 405.374 70.4416 406.385 80.9735Z" fill="url(#paint0_linear_922_38)"/>
<path fill-rule="evenodd" clip-rule="evenodd" d="M406.385 80.9735C407.201 91.4571 407.201 96.3718 407.201 101.736H382.943C382.943 100.567 382.964 99.4986 382.985 98.4145C383.051 95.0451 383.119 91.5318 382.573 84.4365C381.852 74.0485 377.378 71.7404 369.152 71.7404H361.865H331V52.8403H370.307C380.697 52.8403 385.893 49.6796 385.893 41.3119C385.893 33.9537 380.697 29.4947 370.307 29.4947H331V11.0005H374.636C398.159 11.0005 409.848 22.1096 409.848 39.8553C409.848 53.1286 401.622 61.7851 390.51 63.2278C399.89 65.1037 405.374 70.4416 406.385 80.9735Z" fill="#191919"/>
<path d="M331 101.736V87.6465H356.649C360.933 87.6465 361.864 90.8236 361.864 92.7185V101.736H331Z" fill="url(#paint1_linear_922_38)"/>
<path d="M331 101.736V87.6465H356.649C360.933 87.6465 361.864 90.8236 361.864 92.7185V101.736H331Z" fill="#191919"/>
<path d="M331 101.737V87.6475H356.649C360.933 87.6475 361.864 90.8246 361.864 92.7194V101.737H331Z" fill="#191919"/>
<path d="M699.981 37.5469H675.881L664.913 52.84L654.234 37.5469H628.402L651.636 69.1436L626.381 101.894H650.481L663.325 84.4368L676.169 101.894H702.001L676.602 68.1332L699.981 37.5469Z" fill="#191919"/>
<path d="M460.336 78.955C458.172 84.0046 454.131 86.1688 447.781 86.1688C440.71 86.1688 434.938 82.4175 434.36 74.4825H479.53V67.9898C479.53 50.5324 468.129 35.8164 446.627 35.8164C426.567 35.8164 411.559 50.388 411.559 70.7312C411.559 91.2184 426.279 103.626 446.915 103.626C463.944 103.626 475.778 95.4025 479.097 80.686L460.336 78.955ZM434.649 63.2286C435.515 57.1691 438.834 52.5522 446.338 52.5522C453.265 52.5522 457.017 57.4579 457.306 63.2286H434.649Z" fill="#191919"/>
<path d="M548.177 48.5126C545.435 41.0099 539.518 35.8164 528.118 35.8164C518.449 35.8164 511.522 40.1444 508.058 47.2138V37.5474H484.68V101.895H508.058V70.2985C508.058 60.6316 510.8 54.2837 518.449 54.2837C525.52 54.2837 527.252 58.9006 527.252 67.7015V101.895H550.631V70.2985C550.631 60.6316 553.228 54.2837 561.021 54.2837C568.092 54.2837 569.68 58.9006 569.68 67.7015V101.895H593.058V61.4976C593.058 48.0798 587.863 35.8164 570.113 35.8164C559.289 35.8164 551.641 41.2987 548.177 48.5126Z" fill="#191919"/>
<path d="M600.705 37.5471V101.895H624.084V37.5471H600.705ZM600.561 31.4877H624.228V11.0005H600.561V31.4877Z" fill="#191919"/>
<path d="M60.7277 115C26.7872 115 0 89.5966 0 57.5C0 24.9471 27.0916 0 60.7277 0C91.4721 0 109.432 10.9524 120.086 27.8373C125.413 36.2037 128 46.0913 128 57.5C128 80.4696 116.585 97.6587 97.7123 107.546C88.4281 112.414 76.0999 115 60.7277 115ZM57.0749 108.003C84.6231 108.003 107.453 85.6415 107.453 57.6521C107.453 29.9669 84.7753 7.3016 57.0749 7.3016C28.918 7.3016 7.15339 30.7275 7.15339 57.6521C7.15339 75.6019 16.742 92.4868 32.1142 101.31C39.8763 105.721 48.0951 108.003 57.0749 108.003Z" fill="#E27152"/>
<path d="M259.08 5.9523L257.696 5.15326C256.167 4.27066 254.212 4.79444 253.33 6.32314L196.598 104.586C195.715 106.115 196.239 108.069 197.767 108.952L199.151 109.751C200.68 110.634 202.635 110.11 203.518 108.581L260.25 10.3184C261.132 8.78965 260.608 6.8349 259.08 5.9523Z" fill="black" fill-opacity="0.15"/>
<defs>
<linearGradient id="paint0_linear_922_38" x1="370.424" y1="11.0005" x2="370.424" y2="101.736" gradientUnits="userSpaceOnUse">
<stop stop-color="white"/>
<stop offset="1" stop-color="white" stop-opacity="0"/>
</linearGradient>
<linearGradient id="paint1_linear_922_38" x1="346.432" y1="87.6465" x2="346.432" y2="101.736" gradientUnits="userSpaceOnUse">
<stop stop-color="white"/>
<stop offset="1" stop-color="white" stop-opacity="0"/>
</linearGradient>
</defs>
</svg>
