<svg width="702" height="115" viewBox="0 0 702 115" fill="none" xmlns="http://www.w3.org/2000/svg">
<path fill-rule="evenodd" clip-rule="evenodd" d="M406.385 80.973C407.201 91.4567 407.201 96.3713 407.201 101.735H382.943C382.943 100.567 382.964 99.4981 382.985 98.414C383.051 95.0446 383.119 91.5314 382.573 84.436C381.852 74.0481 377.378 71.7399 369.152 71.7399H361.865H331V52.8398H370.307C380.697 52.8398 385.893 49.6791 385.893 41.3114C385.893 33.9532 380.697 29.4942 370.307 29.4942H331V11H374.636C398.159 11 409.848 22.1091 409.848 39.8548C409.848 53.1281 401.622 61.7846 390.51 63.2273C399.89 65.1032 405.374 70.4411 406.385 80.973Z" fill="url(#paint0_linear_922_37)"/>
<path fill-rule="evenodd" clip-rule="evenodd" d="M406.385 80.973C407.201 91.4567 407.201 96.3713 407.201 101.735H382.943C382.943 100.567 382.964 99.4981 382.985 98.414C383.051 95.0446 383.119 91.5314 382.573 84.436C381.852 74.0481 377.378 71.7399 369.152 71.7399H361.865H331V52.8398H370.307C380.697 52.8398 385.893 49.6791 385.893 41.3114C385.893 33.9532 380.697 29.4942 370.307 29.4942H331V11H374.636C398.159 11 409.848 22.1091 409.848 39.8548C409.848 53.1281 401.622 61.7846 390.51 63.2273C399.89 65.1032 405.374 70.4411 406.385 80.973Z" fill="white"/>
<path d="M331 101.735V87.646H356.649C360.933 87.646 361.864 90.8231 361.864 92.718V101.735H331Z" fill="url(#paint1_linear_922_37)"/>
<path d="M331 101.735V87.646H356.649C360.933 87.646 361.864 90.8231 361.864 92.718V101.735H331Z" fill="white"/>
<path d="M331 101.736V87.647H356.649C360.933 87.647 361.864 90.8241 361.864 92.719V101.736H331Z" fill="white"/>
<path d="M699.981 37.5464H675.881L664.913 52.8395L654.234 37.5464H628.402L651.636 69.1431L626.381 101.894H650.481L663.325 84.4363L676.169 101.894H702.001L676.602 68.1327L699.981 37.5464Z" fill="white"/>
<path d="M460.336 78.9545C458.172 84.0041 454.131 86.1683 447.781 86.1683C440.71 86.1683 434.938 82.417 434.36 74.4821H479.53V67.9893C479.53 50.5319 468.129 35.8159 446.627 35.8159C426.567 35.8159 411.559 50.3875 411.559 70.7307C411.559 91.2179 426.279 103.626 446.915 103.626C463.944 103.626 475.778 95.402 479.097 80.6855L460.336 78.9545ZM434.649 63.2281C435.515 57.1686 438.834 52.5517 446.338 52.5517C453.265 52.5517 457.017 57.4574 457.306 63.2281H434.649Z" fill="white"/>
<path d="M548.177 48.5121C545.435 41.0094 539.518 35.8159 528.118 35.8159C518.449 35.8159 511.522 40.1439 508.058 47.2133V37.5469H484.68V101.894H508.058V70.298C508.058 60.6311 510.8 54.2832 518.449 54.2832C525.52 54.2832 527.252 58.9001 527.252 67.701V101.894H550.631V70.298C550.631 60.6311 553.228 54.2832 561.021 54.2832C568.092 54.2832 569.68 58.9001 569.68 67.701V101.894H593.058V61.4971C593.058 48.0793 587.863 35.8159 570.113 35.8159C559.289 35.8159 551.641 41.2982 548.177 48.5121Z" fill="white"/>
<path d="M600.705 37.5467V101.894H624.084V37.5467H600.705ZM600.561 31.4872H624.228V11H600.561V31.4872Z" fill="white"/>
<path d="M60.7277 115C26.7872 115 0 89.5961 0 57.4995C0 24.9466 27.0916 -0.000488281 60.7277 -0.000488281C91.4721 -0.000488281 109.432 10.9519 120.086 27.8368C125.413 36.2032 128 46.0908 128 57.4995C128 80.4691 116.585 97.6582 97.7123 107.546C88.4281 112.414 76.0999 115 60.7277 115ZM57.0749 108.002C84.6231 108.002 107.453 85.641 107.453 57.6516C107.453 29.9665 84.7753 7.30112 57.0749 7.30112C28.918 7.30112 7.15339 30.727 7.15339 57.6516C7.15339 75.6014 16.742 92.4863 32.1142 101.309C39.8763 105.72 48.0951 108.002 57.0749 108.002Z" fill="#F25E36"/>
<path d="M259.08 5.95182L257.696 5.15277C256.167 4.27017 254.212 4.79395 253.33 6.32265L196.598 104.585C195.715 106.114 196.239 108.069 197.767 108.952L199.151 109.751C200.68 110.633 202.635 110.109 203.518 108.581L260.25 10.3179C261.132 8.78916 260.608 6.83442 259.08 5.95182Z" fill="black" fill-opacity="0.15"/>
<defs>
<linearGradient id="paint0_linear_922_37" x1="370.424" y1="11" x2="370.424" y2="101.735" gradientUnits="userSpaceOnUse">
<stop stop-color="white"/>
<stop offset="1" stop-color="white" stop-opacity="0"/>
</linearGradient>
<linearGradient id="paint1_linear_922_37" x1="346.432" y1="87.646" x2="346.432" y2="101.735" gradientUnits="userSpaceOnUse">
<stop stop-color="white"/>
<stop offset="1" stop-color="white" stop-opacity="0"/>
</linearGradient>
</defs>
</svg>
